<svg width="171" height="82" viewBox="0 0 171 82" fill="none" xmlns="http://www.w3.org/2000/svg">
<rect width="32.3323" height="12.2713" transform="matrix(0 -1 -1 0 45 32.5657)" fill="#FF0091"/>
<path d="M25.4321 51.2017L44.6682 0.233364H32.7285L12 51.2017H25.4321Z" fill="white"/>
<path d="M40.2354 49.4626H36.0078L35.2695 51.8533H31.9736L36.667 39.0564H39.5674L44.2959 51.8533H40.9824L40.2354 49.4626ZM36.7461 47.0808H39.4971L38.1172 42.6423L36.7461 47.0808ZM57.1738 51.8533H54.1064L49.5713 43.8904V51.8533H46.4863V39.0564H49.5713L54.0977 47.0193V39.0564H57.1738V51.8533ZM76.0391 47.7927C75.8809 49.1462 75.3799 50.1921 74.5361 50.9304C73.6982 51.6628 72.582 52.0291 71.1875 52.0291C69.6758 52.0291 68.4629 51.4871 67.5488 50.4031C66.6406 49.3191 66.1865 47.8689 66.1865 46.0525V44.822C66.1865 43.6326 66.3975 42.5867 66.8193 41.6843C67.2471 40.782 67.8506 40.0906 68.6299 39.6101C69.4092 39.1238 70.3115 38.8806 71.3369 38.8806C72.6963 38.8806 73.7861 39.2615 74.6064 40.0232C75.4268 40.7791 75.9043 41.8279 76.0391 43.1697H74.3428C74.1963 42.1501 73.877 41.4119 73.3848 40.9548C72.8984 40.4978 72.2158 40.2693 71.3369 40.2693C70.2588 40.2693 69.4121 40.6677 68.7969 41.4646C68.1875 42.2615 67.8828 43.3953 67.8828 44.866V46.1052C67.8828 47.4939 68.1729 48.5984 68.7529 49.4187C69.333 50.239 70.1445 50.6492 71.1875 50.6492C72.125 50.6492 72.8428 50.4382 73.3408 50.0164C73.8447 49.5886 74.1787 48.8474 74.3428 47.7927H76.0391ZM88.6094 39.0564V47.7576C88.6035 48.9646 88.2227 49.9519 87.4668 50.7195C86.7168 51.4871 85.6973 51.9177 84.4082 52.0115L83.96 52.0291C82.5596 52.0291 81.4434 51.6511 80.6113 50.8953C79.7793 50.1394 79.3574 49.0994 79.3457 47.7751V39.0564H81.0156V47.7224C81.0156 48.6482 81.2705 49.3689 81.7803 49.8845C82.29 50.3943 83.0166 50.6492 83.96 50.6492C84.915 50.6492 85.6445 50.3943 86.1484 49.8845C86.6582 49.3748 86.9131 48.657 86.9131 47.7312V39.0564H88.6094ZM92.5225 51.8533V39.0564H96.7061C98.0947 39.0564 99.1377 39.3435 99.835 39.9177C100.538 40.4919 100.89 41.3416 100.89 42.4666C100.89 43.0642 100.72 43.5945 100.38 44.0574C100.04 44.5144 99.5771 44.8689 98.9912 45.1208C99.6826 45.3142 100.228 45.6833 100.626 46.2283C101.03 46.7673 101.232 47.4119 101.232 48.1619C101.232 49.3103 100.86 50.2126 100.116 50.8689C99.3721 51.5251 98.3203 51.8533 96.9609 51.8533H92.5225ZM94.21 45.8679V50.4734H96.9961C97.7812 50.4734 98.3994 50.2712 98.8506 49.8669C99.3076 49.4568 99.5361 48.8943 99.5361 48.1794C99.5361 46.6384 98.6982 45.8679 97.0225 45.8679H94.21ZM94.21 44.5144H96.7588C97.4971 44.5144 98.0859 44.3298 98.5254 43.9607C98.9707 43.5916 99.1934 43.0906 99.1934 42.4578C99.1934 41.7546 98.9883 41.2449 98.5781 40.9285C98.168 40.6062 97.5439 40.4451 96.7061 40.4451H94.21V44.5144ZM112.054 48.5134H106.692L105.488 51.8533H103.748L108.635 39.0564H110.111L115.007 51.8533H113.275L112.054 48.5134ZM107.202 47.1248H111.553L109.373 41.1394L107.202 47.1248ZM125.679 40.4451H121.565V51.8533H119.887V40.4451H115.782V39.0564H125.679V40.4451ZM138.425 45.8679C138.425 47.1218 138.214 48.2175 137.792 49.155C137.37 50.0867 136.772 50.7986 135.999 51.2908C135.226 51.783 134.323 52.0291 133.292 52.0291C132.284 52.0291 131.391 51.783 130.611 51.2908C129.832 50.7927 129.226 50.0867 128.792 49.1726C128.364 48.2527 128.145 47.1892 128.133 45.9822V45.0593C128.133 43.8289 128.347 42.7419 128.774 41.7986C129.202 40.8552 129.806 40.1345 130.585 39.6365C131.37 39.1326 132.267 38.8806 133.274 38.8806C134.3 38.8806 135.202 39.1296 135.981 39.6277C136.767 40.1199 137.37 40.8376 137.792 41.781C138.214 42.7185 138.425 43.8113 138.425 45.0593V45.8679ZM136.746 45.0417C136.746 43.5242 136.441 42.3611 135.832 41.5525C135.223 40.738 134.37 40.3308 133.274 40.3308C132.208 40.3308 131.367 40.738 130.752 41.5525C130.143 42.3611 129.829 43.4861 129.812 44.9275V45.8679C129.812 47.3386 130.119 48.4958 130.734 49.3396C131.355 50.1775 132.208 50.5964 133.292 50.5964C134.382 50.5964 135.226 50.2009 135.823 49.4099C136.421 48.613 136.729 47.4734 136.746 45.991V45.0417ZM146.899 46.6765H143.894V51.8533H142.197V39.0564H146.434C147.875 39.0564 148.982 39.3845 149.756 40.0408C150.535 40.697 150.925 41.6521 150.925 42.906C150.925 43.7029 150.708 44.3972 150.274 44.989C149.847 45.5808 149.249 46.0232 148.481 46.3162L151.487 51.7478V51.8533H149.677L146.899 46.6765ZM143.894 45.2966H146.486C147.324 45.2966 147.989 45.0798 148.481 44.6462C148.979 44.2126 149.229 43.6326 149.229 42.906C149.229 42.115 148.991 41.5085 148.517 41.0867C148.048 40.6648 147.368 40.4509 146.478 40.4451H143.894V45.2966Z" fill="white"/>
<path d="M1.5 80.3975V36.303L170 22.9531V58.0189L1.5 80.3975Z" stroke="white" stroke-width="2"/>
</svg>
